{"asset":{"version":"2.0","generator":"Open Asset Import Library (assimp v3.1.128981410)"},"accessors":[{"bufferView":0,"byteOffset":0,"componentType":5126,"count":26,"type":"VEC3","max":[-60.953948974609375,-101.33561706542969,28.565141677856445],"min":[-62.0875244140625,-101.84492492675781,28.37529945373535]},{"bufferView":1,"byteOffset":0,"componentType":5126,"count":26,"type":"VEC3","max":[1,1,1],"min":[-1,-1.6292068494294654e-7,-1]},{"bufferView":2,"byteOffset":0,"componentType":5126,"count":26,"type":"VEC2","max":[1.000000238418579,0.6725196838378906],"min":[0.06292083859443665,-1.1920928955078125e-7]},{"bufferView":3,"byteOffset":0,"componentType":5123,"count":48,"type":"SCALAR","max":[25],"min":[0]},{"bufferView":4,"byteOffset":0,"componentType":5126,"count":20,"type":"VEC3","max":[-60.953948974609375,-101.84492492675781,28.565141677856445],"min":[-62.0875244140625,-101.89673614501953,28.37529945373535]},{"bufferView":5,"byteOffset":0,"componentType":5126,"count":20,"type":"VEC3","max":[1,1.6292068494294654e-7,1],"min":[-1,-1.6292068494294654e-7,-1]},{"bufferView":6,"byteOffset":0,"componentType":5126,"count":20,"type":"VEC2","max":[0.2526722848415375,0.6725195646286011],"min":[0.06292083859443665,-1.1920928955078125e-7]},{"bufferView":7,"byteOffset":0,"componentType":5123,"count":36,"type":"SCALAR","max":[19],"min":[0]},{"bufferView":8,"byteOffset":0,"componentType":5126,"count":770,"type":"VEC3","max":[-61.104095458984375,-101.84329223632812,28.490924835205078],"min":[-61.987823486328125,-101.8450927734375,28.46394157409668]},{"bufferView":9,"byteOffset":0,"componentType":5126,"count":770,"type":"VEC3","max":[1,1,0.9848363995552063],"min":[-1,-1,-0.9848126173019409]},{"bufferView":10,"byteOffset":0,"componentType":5126,"count":770,"type":"VEC2","max":[0.9722222089767456,1],"min":[-0.027777791023254395,5.960464477539063e-8]},{"bufferView":11,"byteOffset":0,"componentType":5123,"count":3240,"type":"SCALAR","max":[769],"min":[0]},{"bufferView":12,"byteOffset":0,"componentType":5126,"count":14256,"type":"VEC3","max":[-61.616397857666016,-101.45394897460938,28.396352767944336],"min":[-61.9578857421875,-101.74950408935547,28.386354446411133]},{"bufferView":13,"byteOffset":0,"componentType":5126,"count":14256,"type":"VEC3","max":[1,1,1],"min":[-1,-1,-1]},{"bufferView":14,"byteOffset":0,"componentType":5126,"count":14256,"type":"VEC2","max":[76.60948944091797,65.046630859375],"min":[-42.95687484741211,-38.441184997558594]},{"bufferView":15,"byteOffset":0,"componentType":5123,"count":42036,"type":"SCALAR","max":[14255],"min":[0]}],"buffers":[{"byteLength":573024,"uri":"data:application/octet-stream;base64,"}],"bufferViews":[{"buffer":0,"byteOffset":0,"byteLength":312,"target":34962},{"buffer":0,"byteOffset":312,"byteLength":312,"target":34962},{"buffer":0,"byteOffset":624,"byteLength":208,"target":34962},{"buffer":0,"byteOffset":832,"byteLength":96,"target":34963},{"buffer":0,"byteOffset":928,"byteLength":240,"target":34962},{"buffer":0,"byteOffset":1168,"byteLength":240,"target":34962},{"buffer":0,"byteOffset":1408,"byteLength":160,"target":34962},{"buffer":0,"byteOffset":1568,"byteLength":72,"target":34963},{"buffer":0,"byteOffset":1640,"byteLength":9240,"target":34962},{"buffer":0,"byteOffset":10880,"byteLength":9240,"target":34962},{"buffer":0,"byteOffset":20120,"byteLength":6160,"target":34962},{"buffer":0,"byteOffset":26280,"byteLength":6480,"target":34963},{"buffer":0,"byteOffset":32760,"byteLength":171072,"target":34962},{"buffer":0,"byteOffset":203832,"byteLength":171072,"target":34962},{"buffer":0,"byteOffset":374904,"byteLength":114048,"target":34962},{"buffer":0,"byteOffset":488952,"byteLength":84072,"target":34963}],"materials":[{"name":"Material _2097628272","pbrMetallicRoughness":{"metallicFactor":0}},{"name":"Material _2097628273","pbrMetallicRoughness":{"metallicFactor":0}},{"name":"Material _2097628286","pbrMetallicRoughness":{"metallicFactor":0}},{"name":"Material _2097628285","pbrMetallicRoughness":{"metallicFactor":0}}],"meshes":[{"name":"Box587","primitives":[{"mode":4,"material":0,"indices":3,"attributes":{"POSITION":0,"NORMAL":1,"TEXCOORD_0":2}},{"mode":4,"material":1,"indices":7,"attributes":{"POSITION":4,"NORMAL":5,"TEXCOORD_0":6}},{"mode":4,"material":2,"indices":11,"attributes":{"POSITION":8,"NORMAL":9,"TEXCOORD_0":10}},{"mode":4,"material":3,"indices":15,"attributes":{"POSITION":12,"NORMAL":13,"TEXCOORD_0":14}}]}],"nodes":[{"name":"RootNode","children":[1]},{"name":"Box587","mesh":0}],"scenes":[{"nodes":[0]}],"scene":0}